<?xml version="1.0" standalone="no"?><!DOCTYPE svg PUBLIC "-//W3C//DTD SVG 1.1//EN" "http://www.w3.org/Graphics/SVG/1.1/DTD/svg11.dtd"><svg t="1514635426167" class="icon" style="" viewBox="0 0 1024 1024" version="1.1" xmlns="http://www.w3.org/2000/svg" p-id="1903" xmlns:xlink="http://www.w3.org/1999/xlink" width="200" height="200"><defs><style type="text/css"></style></defs><path d="M829.44 254.293333H216.746667c-29.013333 0-51.2 22.186667-51.2 51.2v523.946667c0 29.013333 22.186667 51.2 51.2 51.2H834.56l1.706667 1.706667 10.24-3.413334c22.186667-6.826667 35.84-25.6 35.84-49.493333V305.493333c-1.706667-29.013333-23.893333-51.2-52.906667-51.2zM216.746667 846.506667c-10.24 0-17.066667-6.826667-17.066667-17.066667v-56.32L443.733333 489.813333l124.586667 134.826667 11.946667 11.946667 11.946666 11.946666 206.506667 197.973334H216.746667z m629.76-141.653334v126.293334c0 3.413333-1.706667 8.533333-5.12 11.946666L616.106667 624.64l73.386666-69.973333 157.013334 150.186666z m-155.306667-197.973333l-97.28 93.866667-150.186667-163.84-102.4 117.76-143.36 167.253333V305.493333c0-10.24 6.826667-17.066667 17.066667-17.066666h612.693333c10.24 0 17.066667 6.826667 17.066667 17.066666v351.573334l-153.6-150.186667z" p-id="1904" fill="#bfbfbf"></path><path d="M677.546667 312.32c-39.253333 0-69.973333 32.426667-69.973334 69.973333s32.426667 69.973333 69.973334 69.973334 69.973333-32.426667 69.973333-69.973334-30.72-69.973333-69.973333-69.973333z m0 105.813333c-20.48 0-35.84-17.066667-35.84-35.84s17.066667-35.84 35.84-35.84 35.84 17.066667 35.84 35.84-15.36 35.84-35.84 35.84z" p-id="1905" fill="#bfbfbf"></path></svg>