<?xml version="1.0" encoding="iso-8859-1"?>
<!-- Generator: Adobe Illustrator 16.0.0, SVG Export Plug-In . SVG Version: 6.00 Build 0)  -->
<!DOCTYPE svg PUBLIC "-//W3C//DTD SVG 1.1//EN" "http://www.w3.org/Graphics/SVG/1.1/DTD/svg11.dtd">
<svg version="1.1" id="&#x56FE;&#x5C42;_1" xmlns="http://www.w3.org/2000/svg" xmlns:xlink="http://www.w3.org/1999/xlink" x="0px"
	 y="0px" width="60px" height="60px" viewBox="0 0 60 60" style="enable-background:new 0 0 60 60;" xml:space="preserve">
<path style="fill:#00B2EE;" d="M57.541,23.696L33.594,4.918c-2.047-1.623-5.252-1.623-7.298,0L2.53,23.706
	c-0.816,0.645-0.947,1.824-0.313,2.631c0.635,0.806,1.824,0.947,2.631,0.313l0.766-0.605v22.708c0,3.215,3.336,5.624,6.32,5.624
	h37.494c2.942,0,4.928-2.258,4.928-5.624V25.983l0.848,0.666c0.342,0.272,0.745,0.403,1.158,0.403c0.555,0,1.109-0.242,1.482-0.715
	C58.498,25.52,58.348,24.341,57.541,23.696z M35.619,46.706v3.911h-3.75H28.12h-3.749v-3.911v-6.581
	c0-2.178,1.764-4.525,5.624-4.525c3.87,0,5.624,2.348,5.624,4.525V46.706L35.619,46.706z"/>
</svg>
