<?xml version="1.0" standalone="no"?><!DOCTYPE svg PUBLIC "-//W3C//DTD SVG 1.1//EN" "http://www.w3.org/Graphics/SVG/1.1/DTD/svg11.dtd"><svg t="1514598963871" class="icon" style="" viewBox="0 0 1024 1024" version="1.1" xmlns="http://www.w3.org/2000/svg" p-id="3614" xmlns:xlink="http://www.w3.org/1999/xlink" width="200" height="200"><defs><style type="text/css"></style></defs><path d="M994.304 949.76c-15.872-197.12-187.392-227.84-260.608-241.152-6.144-1.024-11.264-2.048-15.872-3.072-31.232-6.656-54.272-19.456-65.024-36.352-7.168-11.264-8.704-23.552-5.632-37.888 10.24-43.008 41.472-73.216 71.168-102.4 24.064-23.552 47.104-46.08 57.856-74.24 18.432-48.128 17.92-74.752-3.072-94.72-6.144-6.144-9.216-14.848-7.168-23.04 18.432-78.336 7.68-143.36-32.256-194.048C655.36 44.544 493.568 36.864 445.952 36.864c-41.984 0-81.408 4.608-108.544 13.312-9.216 3.072-16.384 9.216-20.48 17.408-4.096 8.192-5.12 17.92-2.048 26.624v0.512c3.584 9.728 0 20.992-8.704 27.136-57.344 43.008-72.192 111.104-48.128 215.04 2.048 8.704-0.512 17.408-7.168 23.552-20.48 19.968-21.504 46.592-2.56 94.72 10.752 28.16 33.792 50.176 57.856 74.24 29.696 29.184 60.416 59.392 71.168 102.4 3.584 13.824 1.536 26.624-5.632 37.888-10.752 16.896-33.792 29.696-65.024 36.352-4.608 1.024-9.728 2.048-15.872 3.072-73.728 12.8-245.248 43.52-261.12 240.64-1.024 9.728 2.56 19.456 9.216 26.624 6.656 7.168 15.872 11.264 25.6 11.264h895.488c9.728 0 18.944-4.096 25.6-11.264 6.144-7.168 9.728-16.896 8.704-26.624zM81.92 936.96c8.704-59.904 36.352-103.936 83.968-134.144 45.568-28.672 100.864-38.4 134.144-44.544 6.144-1.024 11.776-2.048 16.384-3.072 45.568-9.216 79.36-29.696 97.792-58.88 14.336-22.528 18.432-49.152 11.776-76.8-13.824-56.832-51.712-94.208-84.48-126.464-19.968-19.968-39.424-38.4-46.08-56.32-8.704-23.04-10.24-33.28-9.728-37.888v-1.536c0-0.512 0.512-0.512 1.024-1.024 19.456-18.944 27.136-45.568 20.992-71.68-25.088-106.496 2.56-142.848 29.184-163.328 21.504-15.872 32.256-41.472 29.696-67.584 21.504-4.608 50.176-7.168 79.872-7.168 86.528 0 197.12 23.04 248.32 87.552 29.696 37.888 37.376 88.576 22.528 151.04-6.144 25.6 2.048 52.736 20.992 71.168 0.512 0.512 0.512 0.512 1.024 0.512v1.536c0 4.096-1.024 14.848-9.728 37.888-6.656 17.92-26.112 36.352-46.08 56.32-33.28 32.768-70.656 69.632-84.48 126.464-6.656 27.648-2.56 53.76 11.776 76.8 18.432 29.184 52.224 49.152 97.792 58.88 5.12 1.024 10.24 2.048 16.896 3.072 32.768 6.144 87.552 15.872 133.632 44.544 48.128 30.208 75.264 73.728 83.968 134.144H81.92z" fill="#cdcdcd" p-id="3615"></path></svg>