<?xml version="1.0" encoding="iso-8859-1"?>
<!-- Generator: Adobe Illustrator 16.0.0, SVG Export Plug-In . SVG Version: 6.00 Build 0)  -->
<!DOCTYPE svg PUBLIC "-//W3C//DTD SVG 1.1//EN" "http://www.w3.org/Graphics/SVG/1.1/DTD/svg11.dtd">
<svg version="1.1" id="&#x56FE;&#x5C42;_1" xmlns="http://www.w3.org/2000/svg" xmlns:xlink="http://www.w3.org/1999/xlink" x="0px"
	 y="0px" width="200px" height="200px" viewBox="0 0 200 200" style="enable-background:new 0 0 200 200;" xml:space="preserve">
<g>
	<path style="fill:#D81E06;" d="M100.06,52.09C80.29,19.57,3.24,4.51,3.24,62.11c0,39.98,48.19,79.96,96.49,119.94l0.33,0.271
		c48.4-40.07,96.81-80.141,96.81-120.21C196.87,26.92,133.96-3.54,100.06,52.09z M99.94,174.26l-0.21-0.149
		C32.4,125.96,6.34,85.09,9.35,61.06c5.63-44.87,66.23-42.05,90.71,4.7c14.84-48.8,84.05-49.56,90.86-3.3
		C194.23,85,165.67,122.18,99.94,174.26z"/>
	<path style="fill:#D81E06;" d="M99.936,175.595l-0.214-0.152c-68.563-49.032-95.1-90.65-92.035-115.12
		c5.733-45.692,67.443-42.82,92.371,4.786c15.112-49.693,85.59-50.467,92.523-3.36C195.953,84.701,166.87,122.562,99.936,175.595z"
		/>
</g>
</svg>
