<?xml version="1.0" standalone="no"?><!DOCTYPE svg PUBLIC "-//W3C//DTD SVG 1.1//EN" "http://www.w3.org/Graphics/SVG/1.1/DTD/svg11.dtd"><svg t="1515499346642" class="icon" style="" viewBox="0 0 1024 1024" version="1.1" xmlns="http://www.w3.org/2000/svg" p-id="1889" xmlns:xlink="http://www.w3.org/1999/xlink" width="200" height="200"><defs><style type="text/css"></style></defs><path d="M512.288 266.72c173.60896-284.8576 495.6928-128.89856 495.6928 51.2896 0 205.15328-247.84512 410.30656-495.6928 615.4624l-1.6576-1.37216 0-40.65024 1.08416 0.7808c336.52096-266.67264 482.75712-457.02656 465.7728-572.4416-34.85568-236.84864-389.19552-232.9728-465.19936 16.8896-125.32864-239.35872-435.61088-253.80864-464.40064-24.05248-15.41376 123.01696 118.01344 332.26112 462.73024 578.81472l0 40.64896c-247.28832-204.69632-494.0224-409.38752-494.0224-614.08 0-294.91328 394.48704-217.79072 495.6928-51.2896z" p-id="1890" fill="#d81e06"></path></svg>