<?xml version="1.0" standalone="no"?><!DOCTYPE svg PUBLIC "-//W3C//DTD SVG 1.1//EN" "http://www.w3.org/Graphics/SVG/1.1/DTD/svg11.dtd"><svg t="1514516564064" class="icon" style="" viewBox="0 0 1024 1024" version="1.1" xmlns="http://www.w3.org/2000/svg" p-id="1992" xmlns:xlink="http://www.w3.org/1999/xlink" width="200" height="200"><defs><style type="text/css"></style></defs><path d="M512 32C320 32 160 188.8 160 380.8c0 176 278.4 521.6 310.4 560L512 992l41.6-51.2c32-38.4 310.4-384 310.4-560C867.2 188.8 707.2 32 512 32zM512 892.8c-105.6-128-288-387.2-288-512C224 224 355.2 96 512 96s288 128 288 284.8C803.2 502.4 617.6 761.6 512 892.8z" p-id="1993" fill="#bfbfbf"></path><path d="M512 224c-89.6 0-160 73.6-160 160s73.6 160 160 160 160-73.6 160-160S601.6 224 512 224zM512 480c-54.4 0-96-44.8-96-96 0-54.4 44.8-96 96-96 54.4 0 96 44.8 96 96C608 438.4 566.4 480 512 480z" p-id="1994" fill="#bfbfbf"></path></svg>