<?xml version="1.0" encoding="iso-8859-1"?>
<!-- Generator: Adobe Illustrator 16.0.0, SVG Export Plug-In . SVG Version: 6.00 Build 0)  -->
<!DOCTYPE svg PUBLIC "-//W3C//DTD SVG 1.1//EN" "http://www.w3.org/Graphics/SVG/1.1/DTD/svg11.dtd">
<svg version="1.1" id="&#x56FE;&#x5C42;_1" xmlns="http://www.w3.org/2000/svg" xmlns:xlink="http://www.w3.org/1999/xlink" x="0px"
	 y="0px" width="60px" height="60px" viewBox="0 0 60 60" style="enable-background:new 0 0 60 60;" xml:space="preserve">
<path style="fill:#00B2EE;" d="M48.752,7.499H11.258c-3.104,0-5.624,2.52-5.624,5.624v29.995c0,3.105,2.52,5.625,5.624,5.625h12.347
	l5.08,5.08c0.363,0.362,0.847,0.554,1.331,0.554s0.958-0.182,1.331-0.554l5.08-5.08h12.346c3.105,0,5.625-2.52,5.625-5.625V13.123
	C54.376,10.019,51.846,7.499,48.752,7.499z M19.684,29.995c-1.552,0-2.812-1.26-2.812-2.812c0-1.552,1.26-2.812,2.812-2.812
	s2.812,1.26,2.812,2.812C22.496,28.735,21.236,29.995,19.684,29.995z M30.932,29.995c-1.551,0-2.812-1.26-2.812-2.812
	c0-1.552,1.26-2.812,2.812-2.812c1.553,0,2.813,1.26,2.813,2.812C33.744,28.735,32.484,29.995,30.932,29.995z M42.19,29.995
	c-1.552,0-2.812-1.26-2.812-2.812c0-1.552,1.26-2.812,2.812-2.812s2.812,1.26,2.812,2.812C45.002,28.735,43.732,29.995,42.19,29.995
	z"/>
</svg>
