<?xml version="1.0" encoding="iso-8859-1"?>
<!-- Generator: Adobe Illustrator 16.0.0, SVG Export Plug-In . SVG Version: 6.00 Build 0)  -->
<!DOCTYPE svg PUBLIC "-//W3C//DTD SVG 1.1//EN" "http://www.w3.org/Graphics/SVG/1.1/DTD/svg11.dtd">
<svg version="1.1" id="&#x56FE;&#x5C42;_1" xmlns="http://www.w3.org/2000/svg" xmlns:xlink="http://www.w3.org/1999/xlink" x="0px"
	 y="0px" width="60px" height="60px" viewBox="0 0 60 60" style="enable-background:new 0 0 60 60;" xml:space="preserve">
<path style="fill:#00B2EE;" d="M51.412,51.121c0,0-9.544-4.849-13.929-5.161v-1.391c7.015-2.983,11.43-10.251,11.43-18.747
	c0-11.137-8.547-20.188-19.049-20.188c-10.502,0-19.049,9.061-19.049,20.188c0,8.598,4.535,15.936,11.691,18.848v1.29h-0.091
	C18.344,46.162,8.627,51.1,8.627,51.1s-1.27,1.068-1.129,1.875s0.867,1.401,1.704,1.401h15.592h10.391h15.582
	c0.836,0,1.542-0.575,1.703-1.37C52.633,52.209,51.412,51.121,51.412,51.121z"/>
</svg>
