<?xml version="1.0" standalone="no"?><!DOCTYPE svg PUBLIC "-//W3C//DTD SVG 1.1//EN" "http://www.w3.org/Graphics/SVG/1.1/DTD/svg11.dtd"><svg t="1516242638961" class="icon" style="" viewBox="0 0 1024 1024" version="1.1" xmlns="http://www.w3.org/2000/svg" p-id="3500" xmlns:xlink="http://www.w3.org/1999/xlink" width="200" height="200"><defs><style type="text/css"></style></defs><path d="M660.496 362.828h49.67v397.34h-49.67v-397.34z m-124.168 397.34v-397.34H486.66v397.34h24.833z m-223.504-397.34h49.67v397.34h-49.67v-397.34z m397.342-149.001v-99.335c0-27.307-22.339-49.667-49.67-49.667H362.493c-27.331 0-49.669 22.36-49.669 49.667v99.335H64.488v49.668h99.337v645.676c0 27.309 22.334 49.668 49.666 49.668h596.008c27.332 0 49.67-22.36 49.67-49.668V263.494h99.333v-49.668H710.166z m-347.673-99.335h298.003v99.335H362.493v-99.335zM809.498 909.17H213.49V263.494h596.008V909.17z" p-id="3501" fill="#bfbfbf"></path></svg>