<?xml version="1.0" standalone="no"?><!DOCTYPE svg PUBLIC "-//W3C//DTD SVG 1.1//EN" "http://www.w3.org/Graphics/SVG/1.1/DTD/svg11.dtd"><svg t="1516263974674" class="icon" style="" viewBox="0 0 1024 1024" version="1.1" xmlns="http://www.w3.org/2000/svg" p-id="3543" xmlns:xlink="http://www.w3.org/1999/xlink" width="200" height="200"><defs><style type="text/css"></style></defs><path d="M891.733333 797.866667L789.333333 654.933333V448c0-123.733333-81.066667-228.266667-194.133333-264.533333 2.133333-4.266667 2.133333-8.533333 2.133333-12.8 0-46.933333-38.4-85.333333-85.333333-85.333334s-85.333333 38.4-85.333333 85.333334c0 4.266667 0 8.533333 2.133333 12.8C315.733333 219.733333 234.666667 324.266667 234.666667 448v206.933333l-102.4 142.933334c-4.266667 6.4-4.266667 14.933333-2.133334 21.333333 4.266667 8.533333 10.666667 12.8 19.2 12.8h236.8c10.666667 59.733333 61.866667 106.666667 125.866667 106.666667s115.2-46.933333 125.866667-106.666667H874.666667c8.533333 0 14.933333-4.266667 19.2-10.666667 4.266667-8.533333 2.133333-17.066667-2.133334-23.466666zM469.333333 170.666667c0-23.466667 19.2-42.666667 42.666667-42.666667s42.666667 19.2 42.666667 42.666667v4.266666c-14.933333-2.133333-27.733333-4.266667-42.666667-4.266666s-27.733333 2.133333-42.666667 4.266666V170.666667z m42.666667 725.333333c-40.533333 0-72.533333-27.733333-83.2-64h164.266667c-8.533333 36.266667-40.533333 64-81.066667 64zM189.866667 789.333333l83.2-115.2c2.133333-4.266667 4.266667-8.533333 4.266666-12.8V448c0-130.133333 104.533333-234.666667 234.666667-234.666667s234.666667 104.533333 234.666667 234.666667v213.333333c0 4.266667 2.133333 8.533333 4.266666 12.8l83.2 115.2H189.866667z" fill="#ffffff" p-id="3544"></path></svg>