<?xml version="1.0" encoding="iso-8859-1"?>
<!-- Generator: Adobe Illustrator 16.0.0, SVG Export Plug-In . SVG Version: 6.00 Build 0)  -->
<!DOCTYPE svg PUBLIC "-//W3C//DTD SVG 1.1//EN" "http://www.w3.org/Graphics/SVG/1.1/DTD/svg11.dtd">
<svg version="1.1" id="&#x56FE;&#x5C42;_1" xmlns="http://www.w3.org/2000/svg" xmlns:xlink="http://www.w3.org/1999/xlink" x="0px"
	 y="0px" width="60px" height="60px" viewBox="0 0 60 60" style="enable-background:new 0 0 60 60;" xml:space="preserve">
<path style="fill:#00B2EE;" d="M53.644,8.368L5.755,26.848c-2.699,1.042-2.631,2.555,0.137,3.376l11.571,3.433l4.705,13.999
	c0.616,1.832,2.225,2.219,3.601,0.855l6.069-6.013l11.981,8.78c1.557,1.141,3.157,0.54,3.577-1.354l8.743-39.395
	C56.559,8.643,55.442,7.674,53.644,8.368z M46.355,17.275L25.929,35.475c-0.368,0.328-0.7,0.977-0.751,1.457l-0.902,8.479
	c-0.101,0.951-0.429,0.99-0.732,0.078l-3.953-11.914c-0.155-0.467,0.057-1.037,0.47-1.285l25.905-15.538
	C47.617,15.761,47.793,15.995,46.355,17.275z"/>
</svg>
